<svg width="1440" height="1021" viewBox="0 0 1440 1021" fill="none" xmlns="http://www.w3.org/2000/svg">
<g opacity="0.4" filter="url(#filter0_i_3_9817)">
<path d="M1060.35 936.585C1060.35 927.99 1053.92 921.019 1045.98 921.019C1038.05 921.019 1031.59 927.99 1031.59 936.585C1031.59 945.18 1038.02 952.179 1045.98 952.179C1053.92 952.179 1060.35 945.18 1060.35 936.585Z" fill="url(#paint0_radial_3_9817)"/>
<path d="M131.566 95.9151C135.134 95.9151 138.026 92.7815 138.026 88.916C138.026 85.0506 135.134 81.917 131.566 81.917C127.997 81.917 125.105 85.0506 125.105 88.916C125.105 92.7815 127.997 95.9151 131.566 95.9151Z" fill="url(#paint1_radial_3_9817)"/>
<path d="M702.662 643.24C706.23 643.24 709.123 640.107 709.123 636.241C709.123 632.376 706.23 629.242 702.662 629.242C699.094 629.242 696.201 632.376 696.201 636.241C696.201 640.107 699.094 643.24 702.662 643.24Z" fill="url(#paint2_radial_3_9817)"/>
<path d="M1121.83 450.543C1121.83 441.948 1115.39 434.949 1107.44 434.949C1099.5 434.949 1093.04 441.92 1093.04 450.543C1093.04 459.138 1099.48 466.137 1107.44 466.137C1115.37 466.109 1121.83 459.138 1121.83 450.543Z" fill="url(#paint3_radial_3_9817)"/>
<path opacity="0.2" d="M460.516 341.386C460.516 332.792 454.082 325.792 446.122 325.792C438.188 325.792 431.728 332.764 431.728 341.386C431.728 349.981 438.163 356.98 446.122 356.98C454.082 356.952 460.516 349.981 460.516 341.386Z" fill="url(#paint4_radial_3_9817)"/>
<path opacity="0.2" d="M1217.91 780.002C1217.91 771.407 1211.48 764.436 1203.52 764.436C1195.58 764.436 1189.15 771.407 1189.15 780.002C1189.15 788.597 1195.58 795.596 1203.52 795.596C1211.48 795.568 1217.91 788.597 1217.91 780.002Z" fill="url(#paint5_radial_3_9817)"/>
<path opacity="0.2" d="M739.074 905.426C739.074 896.831 732.639 889.86 724.706 889.86C716.772 889.86 710.311 896.831 710.311 905.426C710.311 914.021 716.746 921.02 724.706 921.02C732.639 921.02 739.074 914.021 739.074 905.426Z" fill="url(#paint6_radial_3_9817)"/>
<path opacity="0.2" d="M45.432 494.805C45.432 486.21 38.9972 479.211 31.0377 479.211C23.104 479.211 16.6433 486.182 16.6433 494.805C16.6433 503.4 23.0781 510.399 31.0377 510.399C38.9972 510.371 45.432 503.4 45.432 494.805Z" fill="url(#paint7_radial_3_9817)"/>
<path d="M427.49 974.997C427.49 966.402 421.055 959.431 413.121 959.431C405.187 959.431 398.727 966.402 398.727 974.997C398.727 983.591 405.162 990.59 413.121 990.59C421.055 990.59 427.49 983.619 427.49 974.997Z" fill="url(#paint8_radial_3_9817)"/>
<path d="M1341.18 163.61C1344.75 163.61 1347.64 160.476 1347.64 156.611C1347.64 152.745 1344.75 149.612 1341.18 149.612C1337.61 149.612 1334.72 152.745 1334.72 156.611C1334.72 160.476 1337.61 163.61 1341.18 163.61Z" fill="url(#paint9_radial_3_9817)"/>
<path d="M238.218 436.041C241.786 436.041 244.679 432.907 244.679 429.042C244.679 425.177 241.786 422.043 238.218 422.043C234.65 422.043 231.757 425.177 231.757 429.042C231.757 432.907 234.65 436.041 238.218 436.041Z" fill="url(#paint10_radial_3_9817)"/>
<path d="M968.867 547.242C968.867 543.379 965.973 540.243 962.406 540.243C958.84 540.243 955.946 543.379 955.946 547.242C955.946 551.106 958.84 554.241 962.406 554.241C965.998 554.241 968.867 551.106 968.867 547.242Z" fill="url(#paint11_radial_3_9817)"/>
<path d="M1251.53 537.164C1255.1 537.164 1257.99 534.03 1257.99 530.165C1257.99 526.299 1255.1 523.166 1251.53 523.166C1247.97 523.166 1245.07 526.299 1245.07 530.165C1245.07 534.03 1247.97 537.164 1251.53 537.164Z" fill="url(#paint12_radial_3_9817)"/>
<path d="M1204.89 606.09C1208.46 606.09 1211.35 602.957 1211.35 599.091C1211.35 595.226 1208.46 592.092 1204.89 592.092C1201.32 592.092 1198.43 595.226 1198.43 599.091C1198.43 602.957 1201.32 606.09 1204.89 606.09Z" fill="url(#paint13_radial_3_9817)"/>
<path d="M1404.47 744.531C1404.47 735.936 1398.04 728.965 1390.08 728.965C1382.14 728.965 1375.71 735.936 1375.71 744.531C1375.71 753.126 1382.14 760.125 1390.08 760.125C1398.04 760.125 1404.47 753.154 1404.47 744.531Z" fill="url(#paint14_radial_3_9817)"/>
<path opacity="0.2" d="M1165.4 936.053C1165.4 927.458 1158.97 920.459 1151.01 920.459C1143.07 920.459 1136.64 927.43 1136.64 936.053C1136.64 944.648 1143.07 951.619 1151.01 951.619C1158.94 951.619 1165.4 944.648 1165.4 936.053Z" fill="url(#paint15_radial_3_9817)"/>
<path d="M1358.19 877.289C1361.75 877.289 1364.65 874.155 1364.65 870.29C1364.65 866.424 1361.75 863.291 1358.19 863.291C1354.62 863.291 1351.73 866.424 1351.73 870.29C1351.73 874.155 1354.62 877.289 1358.19 877.289Z" fill="url(#paint16_radial_3_9817)"/>
<path d="M1245.07 848.258C1248.64 848.258 1251.53 845.124 1251.53 841.259C1251.53 837.393 1248.64 834.26 1245.07 834.26C1241.5 834.26 1238.61 837.393 1238.61 841.259C1238.61 845.124 1241.5 848.258 1245.07 848.258Z" fill="url(#paint17_radial_3_9817)"/>
<path d="M455.891 434.865C459.459 434.865 462.351 431.732 462.351 427.866C462.351 424.001 459.459 420.867 455.891 420.867C452.322 420.867 449.43 424.001 449.43 427.866C449.43 431.732 452.322 434.865 455.891 434.865Z" fill="url(#paint18_radial_3_9817)"/>
<path d="M409.245 503.792C412.813 503.792 415.705 500.658 415.705 496.793C415.705 492.927 412.813 489.793 409.245 489.793C405.677 489.793 402.784 492.927 402.784 496.793C402.784 500.658 405.677 503.792 409.245 503.792Z" fill="url(#paint19_radial_3_9817)"/>
<path opacity="0.2" d="M581.848 15.5939C581.848 6.99905 575.413 0 567.453 0C559.52 0 553.059 6.97106 553.059 15.5939C553.059 24.1887 559.494 31.1878 567.453 31.1878C575.413 31.1598 581.848 24.1887 581.848 15.5939Z" fill="url(#paint20_radial_3_9817)"/>
<path d="M905.914 38.1588C909.483 38.1588 912.375 35.0252 912.375 31.1597C912.375 27.2942 909.483 24.1606 905.914 24.1606C902.346 24.1606 899.454 27.2942 899.454 31.1597C899.454 35.0252 902.346 38.1588 905.914 38.1588Z" fill="url(#paint21_radial_3_9817)"/>
<path d="M780.474 97.7344C784.042 97.7344 786.935 94.6009 786.935 90.7354C786.935 86.8699 784.042 83.7363 780.474 83.7363C776.906 83.7363 774.013 86.8699 774.013 90.7354C774.013 94.6009 776.906 97.7344 780.474 97.7344Z" fill="url(#paint22_radial_3_9817)"/>
<path d="M577.222 109.073C580.79 109.073 583.682 105.94 583.682 102.074C583.682 98.2088 580.79 95.0752 577.222 95.0752C573.654 95.0752 570.761 98.2088 570.761 102.074C570.761 105.94 573.654 109.073 577.222 109.073Z" fill="url(#paint23_radial_3_9817)"/>
<path d="M561.794 662.503C565.362 662.503 568.254 659.369 568.254 655.503C568.254 651.638 565.362 648.504 561.794 648.504C558.226 648.504 555.333 651.638 555.333 655.503C555.333 659.369 558.226 662.503 561.794 662.503Z" fill="url(#paint24_radial_3_9817)"/>
<path opacity="0.2" d="M245.247 680.308C245.247 671.713 238.812 664.714 230.853 664.714C222.919 664.714 216.459 671.685 216.459 680.308C216.459 688.903 222.893 695.874 230.853 695.874C238.812 695.902 245.247 688.931 245.247 680.308Z" fill="url(#paint25_radial_3_9817)"/>
<path opacity="0.2" d="M369.757 833.728C369.757 825.133 363.322 818.162 355.363 818.162C347.403 818.162 340.968 825.133 340.968 833.728C340.968 842.323 347.403 849.322 355.363 849.322C363.322 849.322 369.757 842.351 369.757 833.728Z" fill="url(#paint26_radial_3_9817)"/>
<path d="M449.43 745.96C452.998 745.96 455.891 742.826 455.891 738.96C455.891 735.095 452.998 731.961 449.43 731.961C445.862 731.961 442.969 735.095 442.969 738.96C442.969 742.826 445.862 745.96 449.43 745.96Z" fill="url(#paint27_radial_3_9817)"/>
<path d="M88.8218 893.275C104.707 893.275 117.585 879.324 117.585 862.115C117.585 844.906 104.707 830.956 88.8218 830.956C72.9365 830.956 60.0589 844.906 60.0589 862.115C60.0589 879.324 72.9365 893.275 88.8218 893.275Z" fill="url(#paint28_radial_3_9817)"/>
<path opacity="0.2" d="M610.791 939.721C610.791 931.126 604.357 924.155 596.397 924.155C588.463 924.155 582.003 931.126 582.003 939.721C582.003 948.316 588.438 955.315 596.397 955.315C604.357 955.287 610.791 948.316 610.791 939.721Z" fill="url(#paint29_radial_3_9817)"/>
<path opacity="0.2" d="M433.769 942.352C433.769 933.757 427.335 926.758 419.375 926.758C411.441 926.758 404.981 933.729 404.981 942.352C404.981 950.975 411.415 957.918 419.375 957.918C427.335 957.918 433.769 950.947 433.769 942.352Z" fill="url(#paint30_radial_3_9817)"/>
<path d="M637.952 1007.98C641.52 1007.98 644.413 1004.84 644.413 1000.98C644.413 997.111 641.52 993.978 637.952 993.978C634.384 993.978 631.491 997.111 631.491 1000.98C631.491 1004.84 634.384 1007.98 637.952 1007.98Z" fill="url(#paint31_radial_3_9817)"/>
<path d="M425.861 786.106C429.43 786.106 432.322 782.972 432.322 779.106C432.322 775.241 429.43 772.107 425.861 772.107C422.293 772.107 419.401 775.241 419.401 779.106C419.401 782.972 422.293 786.106 425.861 786.106Z" fill="url(#paint32_radial_3_9817)"/>
<path d="M1.70632 801.952C1.70632 793.357 -4.7285 786.386 -12.688 786.386C-20.6217 786.386 -27.0824 793.357 -27.0824 801.952C-27.0824 810.546 -20.6476 817.545 -12.688 817.545C-4.7285 817.545 1.70632 810.574 1.70632 801.952Z" fill="url(#paint33_radial_3_9817)"/>
<path d="M1322.91 1015.25C1338.8 1015.25 1351.67 1001.3 1351.67 984.094C1351.67 966.885 1338.8 952.935 1322.91 952.935C1307.03 952.935 1294.15 966.885 1294.15 984.094C1294.15 1001.3 1307.03 1015.25 1322.91 1015.25Z" fill="url(#paint34_radial_3_9817)"/>
<path opacity="0.2" d="M800.916 906.49C800.916 915.085 807.35 922.056 815.284 922.056C823.218 922.056 829.679 915.085 829.679 906.49C829.679 897.895 823.244 890.896 815.284 890.896C807.35 890.896 800.916 897.895 800.916 906.49Z" fill="url(#paint35_radial_3_9817)"/>
<path opacity="0.2" d="M1279.75 781.067C1279.75 789.662 1286.19 796.633 1294.12 796.633C1302.06 796.633 1308.49 789.662 1308.49 781.067C1308.49 772.472 1302.06 765.501 1294.12 765.501C1286.19 765.473 1279.75 772.444 1279.75 781.067Z" fill="url(#paint36_radial_3_9817)"/>
<path opacity="0.2" d="M977.938 903.858C977.938 912.453 984.373 919.452 992.306 919.452C1000.24 919.452 1006.7 912.481 1006.7 903.858C1006.7 895.263 1000.27 888.292 992.306 888.292C984.373 888.292 977.938 895.263 977.938 903.858Z" fill="url(#paint37_radial_3_9817)"/>
<path d="M237.339 524.09C240.908 524.09 243.8 520.956 243.8 517.091C243.8 513.225 240.908 510.092 237.339 510.092C233.771 510.092 230.879 513.225 230.879 517.091C230.879 520.956 233.771 524.09 237.339 524.09Z" fill="url(#paint38_radial_3_9817)"/>
</g>
<defs>
<filter id="filter0_i_3_9817" x="-194" y="0" width="1883.98" height="1115.9" filterUnits="userSpaceOnUse" color-interpolation-filters="sRGB">
<feFlood flood-opacity="0" result="BackgroundImageFix"/>
<feBlend mode="normal" in="SourceGraphic" in2="BackgroundImageFix" result="shape"/>
<feColorMatrix in="SourceAlpha" type="matrix" values="0 0 0 0 0 0 0 0 0 0 0 0 0 0 0 0 0 0 127 0" result="hardAlpha"/>
<feOffset dy="4"/>
<feGaussianBlur stdDeviation="2"/>
<feComposite in2="hardAlpha" operator="arithmetic" k2="-1" k3="1"/>
<feColorMatrix type="matrix" values="0 0 0 0 0 0 0 0 0 0 0 0 0 0 0 0 0 0 0.25 0"/>
<feBlend mode="normal" in2="shape" result="effect1_innerShadow_3_9817"/>
</filter>
<radialGradient id="paint0_radial_3_9817" cx="0" cy="0" r="1" gradientUnits="userSpaceOnUse" gradientTransform="translate(1045.97 936.589) scale(14.3825 15.581)">
<stop offset="0.5642" stop-color="#F50000"/>
<stop offset="0.6284" stop-color="#F10000"/>
<stop offset="0.6852" stop-color="#E70000"/>
<stop offset="0.7393" stop-color="#D50000"/>
<stop offset="0.7917" stop-color="#BB0000"/>
<stop offset="0.8429" stop-color="#9A0000"/>
<stop offset="0.8933" stop-color="#720000"/>
<stop offset="0.9428" stop-color="#420000"/>
<stop offset="0.9906" stop-color="#0C0000"/>
<stop offset="1"/>
</radialGradient>
<radialGradient id="paint1_radial_3_9817" cx="0" cy="0" r="1" gradientUnits="userSpaceOnUse" gradientTransform="translate(131.576 88.9113) scale(6.46065 6.99905)">
<stop offset="0.5642" stop-color="#F50000"/>
<stop offset="0.6284" stop-color="#F10000"/>
<stop offset="0.6852" stop-color="#E70000"/>
<stop offset="0.7393" stop-color="#D50000"/>
<stop offset="0.7917" stop-color="#BB0000"/>
<stop offset="0.8429" stop-color="#9A0000"/>
<stop offset="0.8933" stop-color="#720000"/>
<stop offset="0.9428" stop-color="#420000"/>
<stop offset="0.9906" stop-color="#0C0000"/>
<stop offset="1"/>
</radialGradient>
<radialGradient id="paint2_radial_3_9817" cx="0" cy="0" r="1" gradientUnits="userSpaceOnUse" gradientTransform="translate(702.666 636.245) scale(6.46066 6.99905)">
<stop offset="0.5642" stop-color="#F50000"/>
<stop offset="0.6284" stop-color="#F10000"/>
<stop offset="0.6852" stop-color="#E70000"/>
<stop offset="0.7393" stop-color="#D50000"/>
<stop offset="0.7917" stop-color="#BB0000"/>
<stop offset="0.8429" stop-color="#9A0000"/>
<stop offset="0.8933" stop-color="#720000"/>
<stop offset="0.9428" stop-color="#420000"/>
<stop offset="0.9906" stop-color="#0C0000"/>
<stop offset="1"/>
</radialGradient>
<radialGradient id="paint3_radial_3_9817" cx="0" cy="0" r="1" gradientUnits="userSpaceOnUse" gradientTransform="translate(1107.44 450.535) scale(14.3825 15.581)">
<stop offset="0.5642" stop-color="#6E008B"/>
<stop offset="0.6471" stop-color="#6B0087"/>
<stop offset="0.7204" stop-color="#63007D"/>
<stop offset="0.7902" stop-color="#54006B"/>
<stop offset="0.8578" stop-color="#400051"/>
<stop offset="0.9239" stop-color="#260030"/>
<stop offset="0.9879" stop-color="#070008"/>
<stop offset="1"/>
</radialGradient>
<radialGradient id="paint4_radial_3_9817" cx="0" cy="0" r="1" gradientUnits="userSpaceOnUse" gradientTransform="translate(446.143 341.374) scale(14.3825 15.581)">
<stop offset="0.5642" stop-color="#EA8100"/>
<stop offset="0.6297" stop-color="#E67F00"/>
<stop offset="0.6877" stop-color="#DC7900"/>
<stop offset="0.743" stop-color="#CA6F00"/>
<stop offset="0.7965" stop-color="#B06100"/>
<stop offset="0.8487" stop-color="#8F4F00"/>
<stop offset="0.9001" stop-color="#673900"/>
<stop offset="0.95" stop-color="#371F00"/>
<stop offset="0.9989" stop-color="#010100"/>
<stop offset="1"/>
</radialGradient>
<radialGradient id="paint5_radial_3_9817" cx="0" cy="0" r="1" gradientUnits="userSpaceOnUse" gradientTransform="translate(1203.54 779.991) scale(14.3825 15.581)">
<stop offset="0.5642" stop-color="#EA8100"/>
<stop offset="0.6297" stop-color="#E67F00"/>
<stop offset="0.6877" stop-color="#DC7900"/>
<stop offset="0.743" stop-color="#CA6F00"/>
<stop offset="0.7965" stop-color="#B06100"/>
<stop offset="0.8487" stop-color="#8F4F00"/>
<stop offset="0.9001" stop-color="#673900"/>
<stop offset="0.95" stop-color="#371F00"/>
<stop offset="0.9989" stop-color="#010100"/>
<stop offset="1"/>
</radialGradient>
<radialGradient id="paint6_radial_3_9817" cx="0" cy="0" r="1" gradientUnits="userSpaceOnUse" gradientTransform="translate(724.693 905.427) scale(14.3825 15.581)">
<stop offset="0.5642" stop-color="#EA8100"/>
<stop offset="0.6297" stop-color="#E67F00"/>
<stop offset="0.6877" stop-color="#DC7900"/>
<stop offset="0.743" stop-color="#CA6F00"/>
<stop offset="0.7965" stop-color="#B06100"/>
<stop offset="0.8487" stop-color="#8F4F00"/>
<stop offset="0.9001" stop-color="#673900"/>
<stop offset="0.95" stop-color="#371F00"/>
<stop offset="0.9989" stop-color="#010100"/>
<stop offset="1"/>
</radialGradient>
<radialGradient id="paint7_radial_3_9817" cx="0" cy="0" r="1" gradientUnits="userSpaceOnUse" gradientTransform="translate(31.048 494.794) scale(14.3825 15.581)">
<stop offset="0.5642" stop-color="#EA8100"/>
<stop offset="0.6297" stop-color="#E67F00"/>
<stop offset="0.6877" stop-color="#DC7900"/>
<stop offset="0.743" stop-color="#CA6F00"/>
<stop offset="0.7965" stop-color="#B06100"/>
<stop offset="0.8487" stop-color="#8F4F00"/>
<stop offset="0.9001" stop-color="#673900"/>
<stop offset="0.95" stop-color="#371F00"/>
<stop offset="0.9989" stop-color="#010100"/>
<stop offset="1"/>
</radialGradient>
<radialGradient id="paint8_radial_3_9817" cx="0" cy="0" r="1" gradientUnits="userSpaceOnUse" gradientTransform="translate(413.119 975.003) scale(14.3822 15.5807)">
<stop offset="0.5642" stop-color="#F50000"/>
<stop offset="0.6284" stop-color="#F10000"/>
<stop offset="0.6852" stop-color="#E70000"/>
<stop offset="0.7393" stop-color="#D50000"/>
<stop offset="0.7917" stop-color="#BB0000"/>
<stop offset="0.8429" stop-color="#9A0000"/>
<stop offset="0.8933" stop-color="#720000"/>
<stop offset="0.9428" stop-color="#420000"/>
<stop offset="0.9906" stop-color="#0C0000"/>
<stop offset="1"/>
</radialGradient>
<radialGradient id="paint9_radial_3_9817" cx="0" cy="0" r="1" gradientUnits="userSpaceOnUse" gradientTransform="translate(1341.18 156.616) scale(6.46066 6.99905)">
<stop offset="0.5642" stop-color="#7000B2"/>
<stop offset="0.6383" stop-color="#6E00AE"/>
<stop offset="0.704" stop-color="#6700A4"/>
<stop offset="0.7664" stop-color="#5C0092"/>
<stop offset="0.8269" stop-color="#4C0078"/>
<stop offset="0.886" stop-color="#370057"/>
<stop offset="0.9432" stop-color="#1E002F"/>
<stop offset="0.9994" stop-color="#000001"/>
<stop offset="1"/>
</radialGradient>
<radialGradient id="paint10_radial_3_9817" cx="0" cy="0" r="1" gradientUnits="userSpaceOnUse" gradientTransform="translate(238.231 429.031) scale(6.46066 6.99905)">
<stop offset="0.5642" stop-color="#7000B2"/>
<stop offset="0.6383" stop-color="#6E00AE"/>
<stop offset="0.704" stop-color="#6700A4"/>
<stop offset="0.7664" stop-color="#5C0092"/>
<stop offset="0.8269" stop-color="#4C0078"/>
<stop offset="0.886" stop-color="#370057"/>
<stop offset="0.9432" stop-color="#1E002F"/>
<stop offset="0.9994" stop-color="#000001"/>
<stop offset="1"/>
</radialGradient>
<radialGradient id="paint11_radial_3_9817" cx="0" cy="0" r="1" gradientUnits="userSpaceOnUse" gradientTransform="translate(962.419 547.254) scale(6.46092 6.99933)">
<stop offset="0.5642" stop-color="#7000B2"/>
<stop offset="0.6383" stop-color="#6E00AE"/>
<stop offset="0.704" stop-color="#6700A4"/>
<stop offset="0.7664" stop-color="#5C0092"/>
<stop offset="0.8269" stop-color="#4C0078"/>
<stop offset="0.886" stop-color="#370057"/>
<stop offset="0.9432" stop-color="#1E002F"/>
<stop offset="0.9994" stop-color="#000001"/>
<stop offset="1"/>
</radialGradient>
<radialGradient id="paint12_radial_3_9817" cx="0" cy="0" r="1" gradientUnits="userSpaceOnUse" gradientTransform="translate(1251.53 530.157) scale(6.46066 6.99905)">
<stop offset="0.5642" stop-color="#F50000"/>
<stop offset="0.6284" stop-color="#F10000"/>
<stop offset="0.6852" stop-color="#E70000"/>
<stop offset="0.7393" stop-color="#D50000"/>
<stop offset="0.7917" stop-color="#BB0000"/>
<stop offset="0.8429" stop-color="#9A0000"/>
<stop offset="0.8933" stop-color="#720000"/>
<stop offset="0.9428" stop-color="#420000"/>
<stop offset="0.9906" stop-color="#0C0000"/>
<stop offset="1"/>
</radialGradient>
<radialGradient id="paint13_radial_3_9817" cx="0" cy="0" r="1" gradientUnits="userSpaceOnUse" gradientTransform="translate(1204.89 599.091) scale(6.46066 6.99905)">
<stop offset="0.5642" stop-color="#F50000"/>
<stop offset="0.6284" stop-color="#F10000"/>
<stop offset="0.6852" stop-color="#E70000"/>
<stop offset="0.7393" stop-color="#D50000"/>
<stop offset="0.7917" stop-color="#BB0000"/>
<stop offset="0.8429" stop-color="#9A0000"/>
<stop offset="0.8933" stop-color="#720000"/>
<stop offset="0.9428" stop-color="#420000"/>
<stop offset="0.9906" stop-color="#0C0000"/>
<stop offset="1"/>
</radialGradient>
<radialGradient id="paint14_radial_3_9817" cx="0" cy="0" r="1" gradientUnits="userSpaceOnUse" gradientTransform="translate(1390.09 744.541) scale(14.3825 15.581)">
<stop offset="0.5642" stop-color="#6E008B"/>
<stop offset="0.6471" stop-color="#6B0087"/>
<stop offset="0.7204" stop-color="#63007D"/>
<stop offset="0.7902" stop-color="#54006B"/>
<stop offset="0.8578" stop-color="#400051"/>
<stop offset="0.9239" stop-color="#260030"/>
<stop offset="0.9879" stop-color="#070008"/>
<stop offset="1"/>
</radialGradient>
<radialGradient id="paint15_radial_3_9817" cx="0" cy="0" r="1" gradientUnits="userSpaceOnUse" gradientTransform="translate(1151.01 936.037) scale(14.3825 15.581)">
<stop offset="0.5642" stop-color="#EA8100"/>
<stop offset="0.6297" stop-color="#E67F00"/>
<stop offset="0.6877" stop-color="#DC7900"/>
<stop offset="0.743" stop-color="#CA6F00"/>
<stop offset="0.7965" stop-color="#B06100"/>
<stop offset="0.8487" stop-color="#8F4F00"/>
<stop offset="0.9001" stop-color="#673900"/>
<stop offset="0.95" stop-color="#371F00"/>
<stop offset="0.9989" stop-color="#010100"/>
<stop offset="1"/>
</radialGradient>
<radialGradient id="paint16_radial_3_9817" cx="0" cy="0" r="1" gradientUnits="userSpaceOnUse" gradientTransform="translate(1358.19 870.276) scale(6.46066 6.99905)">
<stop offset="0.5642" stop-color="#7000B2"/>
<stop offset="0.6383" stop-color="#6E00AE"/>
<stop offset="0.704" stop-color="#6700A4"/>
<stop offset="0.7664" stop-color="#5C0092"/>
<stop offset="0.8269" stop-color="#4C0078"/>
<stop offset="0.886" stop-color="#370057"/>
<stop offset="0.9432" stop-color="#1E002F"/>
<stop offset="0.9994" stop-color="#000001"/>
<stop offset="1"/>
</radialGradient>
<radialGradient id="paint17_radial_3_9817" cx="0" cy="0" r="1" gradientUnits="userSpaceOnUse" gradientTransform="translate(1245.07 841.264) scale(6.46066 6.99905)">
<stop offset="0.5642" stop-color="#7000B2"/>
<stop offset="0.6383" stop-color="#6E00AE"/>
<stop offset="0.704" stop-color="#6700A4"/>
<stop offset="0.7664" stop-color="#5C0092"/>
<stop offset="0.8269" stop-color="#4C0078"/>
<stop offset="0.886" stop-color="#370057"/>
<stop offset="0.9432" stop-color="#1E002F"/>
<stop offset="0.9994" stop-color="#000001"/>
<stop offset="1"/>
</radialGradient>
<radialGradient id="paint18_radial_3_9817" cx="0" cy="0" r="1" gradientUnits="userSpaceOnUse" gradientTransform="translate(455.892 427.853) scale(6.46066 6.99905)">
<stop offset="0.5642" stop-color="#F50000"/>
<stop offset="0.6284" stop-color="#F10000"/>
<stop offset="0.6852" stop-color="#E70000"/>
<stop offset="0.7393" stop-color="#D50000"/>
<stop offset="0.7917" stop-color="#BB0000"/>
<stop offset="0.8429" stop-color="#9A0000"/>
<stop offset="0.8933" stop-color="#720000"/>
<stop offset="0.9428" stop-color="#420000"/>
<stop offset="0.9906" stop-color="#0C0000"/>
<stop offset="1"/>
</radialGradient>
<radialGradient id="paint19_radial_3_9817" cx="0" cy="0" r="1" gradientUnits="userSpaceOnUse" gradientTransform="translate(409.244 496.788) scale(6.46066 6.99905)">
<stop offset="0.5642" stop-color="#F50000"/>
<stop offset="0.6284" stop-color="#F10000"/>
<stop offset="0.6852" stop-color="#E70000"/>
<stop offset="0.7393" stop-color="#D50000"/>
<stop offset="0.7917" stop-color="#BB0000"/>
<stop offset="0.8429" stop-color="#9A0000"/>
<stop offset="0.8933" stop-color="#720000"/>
<stop offset="0.9428" stop-color="#420000"/>
<stop offset="0.9906" stop-color="#0C0000"/>
<stop offset="1"/>
</radialGradient>
<radialGradient id="paint20_radial_3_9817" cx="0" cy="0" r="1" gradientUnits="userSpaceOnUse" gradientTransform="translate(567.463 15.5813) scale(14.3827 15.5813)">
<stop offset="0.5642" stop-color="#EA8100"/>
<stop offset="0.6297" stop-color="#E67F00"/>
<stop offset="0.6877" stop-color="#DC7900"/>
<stop offset="0.743" stop-color="#CA6F00"/>
<stop offset="0.7965" stop-color="#B06100"/>
<stop offset="0.8487" stop-color="#8F4F00"/>
<stop offset="0.9001" stop-color="#673900"/>
<stop offset="0.95" stop-color="#371F00"/>
<stop offset="0.9989" stop-color="#010100"/>
<stop offset="1"/>
</radialGradient>
<radialGradient id="paint21_radial_3_9817" cx="0" cy="0" r="1" gradientUnits="userSpaceOnUse" gradientTransform="translate(905.908 31.1622) scale(6.46066 6.99905)">
<stop offset="0.5642" stop-color="#7000B2"/>
<stop offset="0.6383" stop-color="#6E00AE"/>
<stop offset="0.704" stop-color="#6700A4"/>
<stop offset="0.7664" stop-color="#5C0092"/>
<stop offset="0.8269" stop-color="#4C0078"/>
<stop offset="0.886" stop-color="#370057"/>
<stop offset="0.9432" stop-color="#1E002F"/>
<stop offset="0.9994" stop-color="#000001"/>
<stop offset="1"/>
</radialGradient>
<radialGradient id="paint22_radial_3_9817" cx="0" cy="0" r="1" gradientUnits="userSpaceOnUse" gradientTransform="translate(780.471 90.7469) scale(6.46066 6.99905)">
<stop offset="0.5642" stop-color="#7000B2"/>
<stop offset="0.6383" stop-color="#6E00AE"/>
<stop offset="0.704" stop-color="#6700A4"/>
<stop offset="0.7664" stop-color="#5C0092"/>
<stop offset="0.8269" stop-color="#4C0078"/>
<stop offset="0.886" stop-color="#370057"/>
<stop offset="0.9432" stop-color="#1E002F"/>
<stop offset="0.9994" stop-color="#000001"/>
<stop offset="1"/>
</radialGradient>
<radialGradient id="paint23_radial_3_9817" cx="0" cy="0" r="1" gradientUnits="userSpaceOnUse" gradientTransform="translate(577.212 102.062) scale(6.46066 6.99905)">
<stop offset="0.5642" stop-color="#F50000"/>
<stop offset="0.6284" stop-color="#F10000"/>
<stop offset="0.6852" stop-color="#E70000"/>
<stop offset="0.7393" stop-color="#D50000"/>
<stop offset="0.7917" stop-color="#BB0000"/>
<stop offset="0.8429" stop-color="#9A0000"/>
<stop offset="0.8933" stop-color="#720000"/>
<stop offset="0.9428" stop-color="#420000"/>
<stop offset="0.9906" stop-color="#0C0000"/>
<stop offset="1"/>
</radialGradient>
<radialGradient id="paint24_radial_3_9817" cx="0" cy="0" r="1" gradientUnits="userSpaceOnUse" gradientTransform="translate(561.784 655.515) scale(6.46066 6.99905)">
<stop offset="0.5642" stop-color="#F50000"/>
<stop offset="0.6284" stop-color="#F10000"/>
<stop offset="0.6852" stop-color="#E70000"/>
<stop offset="0.7393" stop-color="#D50000"/>
<stop offset="0.7917" stop-color="#BB0000"/>
<stop offset="0.8429" stop-color="#9A0000"/>
<stop offset="0.8933" stop-color="#720000"/>
<stop offset="0.9428" stop-color="#420000"/>
<stop offset="0.9906" stop-color="#0C0000"/>
<stop offset="1"/>
</radialGradient>
<radialGradient id="paint25_radial_3_9817" cx="0" cy="0" r="1" gradientUnits="userSpaceOnUse" gradientTransform="translate(230.873 680.315) scale(14.3825 15.581)">
<stop offset="0.5642" stop-color="#EA8100"/>
<stop offset="0.6297" stop-color="#E67F00"/>
<stop offset="0.6877" stop-color="#DC7900"/>
<stop offset="0.743" stop-color="#CA6F00"/>
<stop offset="0.7965" stop-color="#B06100"/>
<stop offset="0.8487" stop-color="#8F4F00"/>
<stop offset="0.9001" stop-color="#673900"/>
<stop offset="0.95" stop-color="#371F00"/>
<stop offset="0.9989" stop-color="#010100"/>
<stop offset="1"/>
</radialGradient>
<radialGradient id="paint26_radial_3_9817" cx="0" cy="0" r="1" gradientUnits="userSpaceOnUse" gradientTransform="translate(355.364 833.737) scale(14.3825 15.581)">
<stop offset="0.5642" stop-color="#EA8100"/>
<stop offset="0.6297" stop-color="#E67F00"/>
<stop offset="0.6877" stop-color="#DC7900"/>
<stop offset="0.743" stop-color="#CA6F00"/>
<stop offset="0.7965" stop-color="#B06100"/>
<stop offset="0.8487" stop-color="#8F4F00"/>
<stop offset="0.9001" stop-color="#673900"/>
<stop offset="0.95" stop-color="#371F00"/>
<stop offset="0.9989" stop-color="#010100"/>
<stop offset="1"/>
</radialGradient>
<radialGradient id="paint27_radial_3_9817" cx="0" cy="0" r="1" gradientUnits="userSpaceOnUse" gradientTransform="translate(449.431 738.957) scale(6.46066 6.99905)">
<stop offset="0.5642" stop-color="#7000B2"/>
<stop offset="0.6383" stop-color="#6E00AE"/>
<stop offset="0.704" stop-color="#6700A4"/>
<stop offset="0.7664" stop-color="#5C0092"/>
<stop offset="0.8269" stop-color="#4C0078"/>
<stop offset="0.886" stop-color="#370057"/>
<stop offset="0.9432" stop-color="#1E002F"/>
<stop offset="0.9994" stop-color="#000001"/>
<stop offset="1"/>
</radialGradient>
<radialGradient id="paint28_radial_3_9817" cx="0" cy="0" r="1" gradientUnits="userSpaceOnUse" gradientTransform="translate(88.8104 862.118) scale(28.7652 31.1623)">
<stop offset="0.5642" stop-color="#B82B00"/>
<stop offset="0.6372" stop-color="#B42A00"/>
<stop offset="0.7019" stop-color="#AA2800"/>
<stop offset="0.7634" stop-color="#982300"/>
<stop offset="0.823" stop-color="#7E1D00"/>
<stop offset="0.8812" stop-color="#5D1600"/>
<stop offset="0.9384" stop-color="#350C00"/>
<stop offset="0.9938" stop-color="#060100"/>
<stop offset="1"/>
</radialGradient>
<radialGradient id="paint29_radial_3_9817" cx="0" cy="0" r="1" gradientUnits="userSpaceOnUse" gradientTransform="translate(596.416 939.718) scale(14.3825 15.581)">
<stop offset="0.5642" stop-color="#EA8100"/>
<stop offset="0.6297" stop-color="#E67F00"/>
<stop offset="0.6877" stop-color="#DC7900"/>
<stop offset="0.743" stop-color="#CA6F00"/>
<stop offset="0.7965" stop-color="#B06100"/>
<stop offset="0.8487" stop-color="#8F4F00"/>
<stop offset="0.9001" stop-color="#673900"/>
<stop offset="0.95" stop-color="#371F00"/>
<stop offset="0.9989" stop-color="#010100"/>
<stop offset="1"/>
</radialGradient>
<radialGradient id="paint30_radial_3_9817" cx="0" cy="0" r="1" gradientUnits="userSpaceOnUse" gradientTransform="translate(419.397 942.341) scale(14.3822 15.5807)">
<stop offset="0.5642" stop-color="#EA8100"/>
<stop offset="0.6297" stop-color="#E67F00"/>
<stop offset="0.6877" stop-color="#DC7900"/>
<stop offset="0.743" stop-color="#CA6F00"/>
<stop offset="0.7965" stop-color="#B06100"/>
<stop offset="0.8487" stop-color="#8F4F00"/>
<stop offset="0.9001" stop-color="#673900"/>
<stop offset="0.95" stop-color="#371F00"/>
<stop offset="0.9989" stop-color="#010100"/>
<stop offset="1"/>
</radialGradient>
<radialGradient id="paint31_radial_3_9817" cx="0" cy="0" r="1" gradientUnits="userSpaceOnUse" gradientTransform="translate(637.956 1000.99) scale(6.46066 6.99905)">
<stop offset="0.5642" stop-color="#7000B2"/>
<stop offset="0.6383" stop-color="#6E00AE"/>
<stop offset="0.704" stop-color="#6700A4"/>
<stop offset="0.7664" stop-color="#5C0092"/>
<stop offset="0.8269" stop-color="#4C0078"/>
<stop offset="0.886" stop-color="#370057"/>
<stop offset="0.9432" stop-color="#1E002F"/>
<stop offset="0.9994" stop-color="#000001"/>
<stop offset="1"/>
</radialGradient>
<radialGradient id="paint32_radial_3_9817" cx="0" cy="0" r="1" gradientUnits="userSpaceOnUse" gradientTransform="translate(425.859 779.103) scale(6.46066 6.99905)">
<stop offset="0.5642" stop-color="#7000B2"/>
<stop offset="0.6383" stop-color="#6E00AE"/>
<stop offset="0.704" stop-color="#6700A4"/>
<stop offset="0.7664" stop-color="#5C0092"/>
<stop offset="0.8269" stop-color="#4C0078"/>
<stop offset="0.886" stop-color="#370057"/>
<stop offset="0.9432" stop-color="#1E002F"/>
<stop offset="0.9994" stop-color="#000001"/>
<stop offset="1"/>
</radialGradient>
<radialGradient id="paint33_radial_3_9817" cx="0" cy="0" r="1" gradientUnits="userSpaceOnUse" gradientTransform="translate(-12.6705 801.967) scale(14.3822 15.5807)">
<stop offset="0.5642" stop-color="#6E008B"/>
<stop offset="0.6471" stop-color="#6B0087"/>
<stop offset="0.7204" stop-color="#63007D"/>
<stop offset="0.7902" stop-color="#54006B"/>
<stop offset="0.8578" stop-color="#400051"/>
<stop offset="0.9239" stop-color="#260030"/>
<stop offset="0.9879" stop-color="#070008"/>
<stop offset="1"/>
</radialGradient>
<radialGradient id="paint34_radial_3_9817" cx="0" cy="0" r="1" gradientUnits="userSpaceOnUse" gradientTransform="translate(1322.9 984.087) rotate(180) scale(28.7652 31.1623)">
<stop offset="0.5642" stop-color="#B82B00"/>
<stop offset="0.6372" stop-color="#B42A00"/>
<stop offset="0.7019" stop-color="#AA2800"/>
<stop offset="0.7634" stop-color="#982300"/>
<stop offset="0.823" stop-color="#7E1D00"/>
<stop offset="0.8812" stop-color="#5D1600"/>
<stop offset="0.9384" stop-color="#350C00"/>
<stop offset="0.9938" stop-color="#060100"/>
<stop offset="1"/>
</radialGradient>
<radialGradient id="paint35_radial_3_9817" cx="0" cy="0" r="1" gradientUnits="userSpaceOnUse" gradientTransform="translate(815.3 906.489) rotate(180) scale(14.3825 15.581)">
<stop offset="0.5642" stop-color="#EA8100"/>
<stop offset="0.6297" stop-color="#E67F00"/>
<stop offset="0.6877" stop-color="#DC7900"/>
<stop offset="0.743" stop-color="#CA6F00"/>
<stop offset="0.7965" stop-color="#B06100"/>
<stop offset="0.8487" stop-color="#8F4F00"/>
<stop offset="0.9001" stop-color="#673900"/>
<stop offset="0.95" stop-color="#371F00"/>
<stop offset="0.9989" stop-color="#010100"/>
<stop offset="1"/>
</radialGradient>
<radialGradient id="paint36_radial_3_9817" cx="0" cy="0" r="1" gradientUnits="userSpaceOnUse" gradientTransform="translate(1294.14 781.055) rotate(180) scale(14.3799 15.5782)">
<stop offset="0.5642" stop-color="#EA8100"/>
<stop offset="0.6297" stop-color="#E67F00"/>
<stop offset="0.6877" stop-color="#DC7900"/>
<stop offset="0.743" stop-color="#CA6F00"/>
<stop offset="0.7965" stop-color="#B06100"/>
<stop offset="0.8487" stop-color="#8F4F00"/>
<stop offset="0.9001" stop-color="#673900"/>
<stop offset="0.95" stop-color="#371F00"/>
<stop offset="0.9989" stop-color="#010100"/>
<stop offset="1"/>
</radialGradient>
<radialGradient id="paint37_radial_3_9817" cx="0" cy="0" r="1" gradientUnits="userSpaceOnUse" gradientTransform="translate(992.317 903.864) rotate(180) scale(14.3825 15.581)">
<stop offset="0.5642" stop-color="#EA8100"/>
<stop offset="0.6297" stop-color="#E67F00"/>
<stop offset="0.6877" stop-color="#DC7900"/>
<stop offset="0.743" stop-color="#CA6F00"/>
<stop offset="0.7965" stop-color="#B06100"/>
<stop offset="0.8487" stop-color="#8F4F00"/>
<stop offset="0.9001" stop-color="#673900"/>
<stop offset="0.95" stop-color="#371F00"/>
<stop offset="0.9989" stop-color="#010100"/>
<stop offset="1"/>
</radialGradient>
<radialGradient id="paint38_radial_3_9817" cx="0" cy="0" r="1" gradientUnits="userSpaceOnUse" gradientTransform="translate(237.334 517.078) scale(6.46066 6.99905)">
<stop offset="0.5642" stop-color="#7000B2"/>
<stop offset="0.6383" stop-color="#6E00AE"/>
<stop offset="0.704" stop-color="#6700A4"/>
<stop offset="0.7664" stop-color="#5C0092"/>
<stop offset="0.8269" stop-color="#4C0078"/>
<stop offset="0.886" stop-color="#370057"/>
<stop offset="0.9432" stop-color="#1E002F"/>
<stop offset="0.9994" stop-color="#000001"/>
<stop offset="1"/>
</radialGradient>
</defs>
</svg>
