<svg width="605" height="617" viewBox="0 0 605 617" fill="none" xmlns="http://www.w3.org/2000/svg">
<g opacity="0.2">
<path d="M267.282 180.923C265.356 182.035 262.891 181.375 261.779 179.448C260.667 177.522 261.327 175.058 263.254 173.945C265.18 172.833 267.645 173.494 268.757 175.42C269.856 177.325 269.208 179.811 267.282 180.923Z" fill="url(#paint0_linear_3_367)"/>
<path d="M185.838 222.494L186.505 223.65L263.556 179.165L262.889 178.009L185.838 222.494Z" fill="url(#paint1_linear_3_367)"/>
<path d="M263.77 393.956C261.844 395.068 259.38 394.408 258.268 392.482C257.155 390.555 257.816 388.091 259.742 386.979C261.668 385.866 264.133 386.527 265.245 388.453C266.357 390.379 265.697 392.844 263.77 393.956Z" fill="url(#paint2_linear_3_367)"/>
<path d="M182.338 435.549L183.005 436.705L260.078 392.207L259.411 391.051L182.338 435.549Z" fill="url(#paint3_linear_3_367)"/>
<path d="M156.74 397.933C154.814 399.045 152.349 398.385 151.237 396.459C150.125 394.533 150.785 392.068 152.711 390.956C154.638 389.844 157.102 390.504 158.214 392.43C159.326 394.357 158.666 396.821 156.74 397.933Z" fill="url(#paint4_linear_3_367)"/>
<path d="M75.2952 439.505L75.9625 440.661L153.014 396.175L152.346 395.019L75.2952 439.505Z" fill="url(#paint5_linear_3_367)"/>
<path d="M154.323 352.87C152.397 353.982 149.932 353.322 148.82 351.396C147.708 349.469 148.368 347.005 150.294 345.893C152.221 344.781 154.685 345.441 155.797 347.367C156.919 349.26 156.271 351.746 154.323 352.87Z" fill="url(#paint6_linear_3_367)"/>
<path d="M72.8997 394.429L73.567 395.585L150.639 351.087L149.972 349.931L72.8997 394.429Z" fill="url(#paint7_linear_3_367)"/>
<path d="M320.466 181.152C318.539 182.264 316.075 181.604 314.963 179.677C313.851 177.751 314.511 175.287 316.437 174.174C318.364 173.062 320.828 173.723 321.94 175.649C323.052 177.575 322.392 180.04 320.466 181.152Z" fill="url(#paint8_linear_3_367)"/>
<path d="M239.021 222.723L239.688 223.879L316.739 179.394L316.072 178.238L239.021 222.723Z" fill="url(#paint9_linear_3_367)"/>
<path d="M64.8773 256.716C62.951 257.828 60.4865 257.168 59.3744 255.242C58.2622 253.315 58.9226 250.851 60.8489 249.739C62.7751 248.626 65.2396 249.287 66.3518 251.213C67.4639 253.139 66.8035 255.604 64.8773 256.716Z" fill="url(#paint10_linear_3_367)"/>
<path d="M-16.5335 298.296L-15.8663 299.452L61.1848 254.967L60.5176 253.811L-16.5335 298.296Z" fill="url(#paint11_linear_3_367)"/>
<path d="M117.047 354.986C115.121 356.098 112.657 355.437 111.544 353.511C110.432 351.585 111.093 349.12 113.019 348.008C114.945 346.896 117.41 347.556 118.522 349.483C119.634 351.409 118.974 353.873 117.047 354.986Z" fill="url(#paint12_linear_3_367)"/>
<path d="M74.1497 374.302L74.817 375.458L113.343 353.215L112.675 352.059L74.1497 374.302Z" fill="url(#paint13_linear_3_367)"/>
<path d="M234.774 111.568C232.848 112.68 230.383 112.02 229.271 110.093C228.159 108.167 228.819 105.703 230.746 104.59C232.672 103.478 235.136 104.139 236.248 106.065C237.348 107.97 236.7 110.456 234.774 111.568Z" fill="url(#paint14_linear_3_367)"/>
<path d="M191.855 130.896L192.522 132.052L231.048 109.809L230.381 108.654L191.855 130.896Z" fill="url(#paint15_linear_3_367)"/>
<path d="M108.92 515.292C106.994 516.405 104.53 515.744 103.417 513.818C102.305 511.892 102.966 509.427 104.892 508.315C106.818 507.203 109.283 507.863 110.395 509.79C111.495 511.694 110.847 514.18 108.92 515.292Z" fill="url(#paint16_linear_3_367)"/>
<path d="M66.0227 534.609L66.6899 535.765L105.215 513.522L104.548 512.366L66.0227 534.609Z" fill="url(#paint17_linear_3_367)"/>
<path d="M146.516 430.148C144.59 431.26 142.125 430.599 141.013 428.673C139.901 426.747 140.561 424.282 142.488 423.17C144.414 422.058 146.878 422.718 147.99 424.645C149.103 426.571 148.442 429.036 146.516 430.148Z" fill="url(#paint18_linear_3_367)"/>
<path d="M103.597 449.477L104.264 450.632L142.79 428.39L142.122 427.234L103.597 449.477Z" fill="url(#paint19_linear_3_367)"/>
<path d="M28.0148 348.172C26.0886 349.284 23.6241 348.624 22.5119 346.698C21.3998 344.771 22.0601 342.307 23.9864 341.195C25.9127 340.083 28.3772 340.743 29.4893 342.669C30.6105 344.562 29.9411 347.06 28.0148 348.172Z" fill="url(#paint20_linear_3_367)"/>
<path d="M-14.8828 367.489L-14.2155 368.644L24.31 346.402L23.6428 345.246L-14.8828 367.489Z" fill="url(#paint21_linear_3_367)"/>
<path d="M337.984 233.935C336.057 235.047 333.593 234.386 332.481 232.46C331.368 230.534 332.029 228.069 333.955 226.957C335.881 225.845 338.346 226.505 339.458 228.432C340.57 230.358 339.91 232.822 337.984 233.935Z" fill="url(#paint22_linear_3_367)"/>
<path d="M256.551 275.527L257.219 276.683L334.291 232.185L333.624 231.029L256.551 275.527Z" fill="url(#paint23_linear_3_367)"/>
<path d="M266.819 432.748C264.892 433.86 262.428 433.2 261.316 431.274C260.204 429.347 260.864 426.883 262.79 425.771C264.717 424.658 267.181 425.319 268.293 427.245C269.405 429.171 268.745 431.636 266.819 432.748Z" fill="url(#paint24_linear_3_367)"/>
<path d="M185.396 474.307L186.063 475.463L263.114 430.977L262.447 429.822L185.396 474.307Z" fill="url(#paint25_linear_3_367)"/>
<path d="M239.115 157.147C237.189 158.259 234.724 157.599 233.612 155.672C232.5 153.746 233.161 151.282 235.087 150.17C237.013 149.057 239.478 149.718 240.59 151.644C241.723 153.558 241.063 156.022 239.115 157.147Z" fill="url(#paint26_linear_3_367)"/>
<path d="M157.704 198.727L158.372 199.883L235.444 155.385L234.777 154.229L157.704 198.727Z" fill="url(#paint27_linear_3_367)"/>
<path d="M280.691 519.797C278.765 520.909 276.3 520.249 275.188 518.322C274.076 516.396 274.736 513.932 276.663 512.819C278.589 511.707 281.054 512.368 282.166 514.294C283.278 516.22 282.617 518.685 280.691 519.797Z" fill="url(#paint28_linear_3_367)"/>
<path d="M199.259 561.39L199.926 562.545L276.999 518.048L276.331 516.892L199.259 561.39Z" fill="url(#paint29_linear_3_367)"/>
<path d="M530.34 213.198C528.413 214.311 525.949 213.65 524.837 211.724C523.725 209.798 524.385 207.333 526.311 206.221C528.238 205.109 530.702 205.769 531.814 207.696C532.948 209.609 532.266 212.086 530.34 213.198Z" fill="url(#paint30_linear_3_367)"/>
<path d="M260.09 363.805L260.757 364.961L526.647 211.449L525.98 210.293L260.09 363.805Z" fill="url(#paint31_linear_3_367)"/>
<path d="M561.873 300.438C559.947 301.551 557.482 300.89 556.37 298.964C555.258 297.038 555.919 294.573 557.845 293.461C559.771 292.349 562.236 293.009 563.348 294.936C564.481 296.849 563.821 299.314 561.873 300.438Z" fill="url(#paint32_linear_3_367)"/>
<path d="M149.387 533.137L150.054 534.293L558.19 298.656L557.523 297.5L149.387 533.137Z" fill="url(#paint33_linear_3_367)"/>
<path d="M292.688 153.156C290.761 154.268 288.297 153.608 287.185 151.682C286.073 149.755 286.733 147.291 288.659 146.179C290.586 145.067 293.05 145.727 294.162 147.653C295.274 149.58 294.614 152.044 292.688 153.156Z" fill="url(#paint34_linear_3_367)"/>
<path d="M22.4373 303.763L23.1046 304.919L288.995 151.407L288.328 150.251L22.4373 303.763Z" fill="url(#paint35_linear_3_367)"/>
<path d="M424.876 202.145C422.95 203.257 420.486 202.597 419.373 200.671C418.261 198.744 418.922 196.28 420.848 195.168C422.774 194.056 425.239 194.716 426.351 196.642C427.484 198.556 426.803 201.033 424.876 202.145Z" fill="url(#paint36_linear_3_367)"/>
<path d="M154.635 352.718L155.302 353.874L421.193 200.362L420.526 199.207L154.635 352.718Z" fill="url(#paint37_linear_3_367)"/>
<path d="M485.577 356.759C483.65 357.872 481.186 357.211 480.074 355.285C478.962 353.359 479.622 350.894 481.548 349.782C483.475 348.67 485.939 349.33 487.051 351.257C488.163 353.183 487.503 355.647 485.577 356.759Z" fill="url(#paint38_linear_3_367)"/>
<path d="M215.327 507.366L215.994 508.522L481.884 355.01L481.217 353.854L215.327 507.366Z" fill="url(#paint39_linear_3_367)"/>
<path d="M175.992 247.356C174.065 248.468 171.601 247.808 170.489 245.881C169.377 243.955 170.037 241.491 171.963 240.378C173.89 239.266 176.354 239.927 177.466 241.853C178.6 243.767 177.939 246.231 175.992 247.356Z" fill="url(#paint40_linear_3_367)"/>
<path d="M24.5162 329.36L25.1835 330.516L172.287 245.585L171.62 244.43L24.5162 329.36Z" fill="url(#paint41_linear_3_367)"/>
<path d="M343.965 357.387C342.039 358.499 339.574 357.839 338.462 355.912C337.35 353.986 338.011 351.522 339.937 350.41C341.863 349.297 344.328 349.958 345.44 351.884C346.552 353.81 345.891 356.275 343.965 357.387Z" fill="url(#paint42_linear_3_367)"/>
<path d="M192.49 439.391L193.157 440.547L340.26 355.616L339.593 354.461L192.49 439.391Z" fill="url(#paint43_linear_3_367)"/>
</g>
<defs>
<linearGradient id="paint0_linear_3_367" x1="245.616" y1="188.76" x2="184.977" y2="223.77" gradientUnits="userSpaceOnUse">
<stop stop-color="#A4FFFF"/>
<stop offset="1" stop-color="#A4FFFF" stop-opacity="0"/>
</linearGradient>
<linearGradient id="paint1_linear_3_367" x1="245.614" y1="188.758" x2="184.977" y2="223.767" gradientUnits="userSpaceOnUse">
<stop stop-color="#A4FFFF"/>
<stop offset="1" stop-color="#A4FFFF" stop-opacity="0"/>
</linearGradient>
<linearGradient id="paint2_linear_3_367" x1="242.112" y1="401.809" x2="181.455" y2="436.83" gradientUnits="userSpaceOnUse">
<stop stop-color="#A4FFFF"/>
<stop offset="1" stop-color="#A4FFFF" stop-opacity="0"/>
</linearGradient>
<linearGradient id="paint3_linear_3_367" x1="242.119" y1="401.806" x2="181.478" y2="436.816" gradientUnits="userSpaceOnUse">
<stop stop-color="#A4FFFF"/>
<stop offset="1" stop-color="#A4FFFF" stop-opacity="0"/>
</linearGradient>
<linearGradient id="paint4_linear_3_367" x1="135.081" y1="405.768" x2="74.4418" y2="440.778" gradientUnits="userSpaceOnUse">
<stop stop-color="#A4FFFF"/>
<stop offset="1" stop-color="#A4FFFF" stop-opacity="0"/>
</linearGradient>
<linearGradient id="paint5_linear_3_367" x1="135.08" y1="405.769" x2="74.4427" y2="440.778" gradientUnits="userSpaceOnUse">
<stop stop-color="#A4FFFF"/>
<stop offset="1" stop-color="#A4FFFF" stop-opacity="0"/>
</linearGradient>
<linearGradient id="paint6_linear_3_367" x1="132.671" y1="360.697" x2="72.0306" y2="395.708" gradientUnits="userSpaceOnUse">
<stop stop-color="#A4FFFF"/>
<stop offset="1" stop-color="#A4FFFF" stop-opacity="0"/>
</linearGradient>
<linearGradient id="paint7_linear_3_367" x1="132.672" y1="360.697" x2="72.0335" y2="395.706" gradientUnits="userSpaceOnUse">
<stop stop-color="#A4FFFF"/>
<stop offset="1" stop-color="#A4FFFF" stop-opacity="0"/>
</linearGradient>
<linearGradient id="paint8_linear_3_367" x1="298.81" y1="188.987" x2="238.187" y2="223.987" gradientUnits="userSpaceOnUse">
<stop stop-color="#A4FFFF"/>
<stop offset="1" stop-color="#A4FFFF" stop-opacity="0"/>
</linearGradient>
<linearGradient id="paint9_linear_3_367" x1="298.804" y1="188.989" x2="238.166" y2="223.998" gradientUnits="userSpaceOnUse">
<stop stop-color="#A4FFFF"/>
<stop offset="1" stop-color="#A4FFFF" stop-opacity="0"/>
</linearGradient>
<linearGradient id="paint10_linear_3_367" x1="43.2278" y1="264.563" x2="-17.411" y2="299.572" gradientUnits="userSpaceOnUse">
<stop stop-color="#A4FFFF"/>
<stop offset="1" stop-color="#A4FFFF" stop-opacity="0"/>
</linearGradient>
<linearGradient id="paint11_linear_3_367" x1="43.227" y1="264.564" x2="-17.41" y2="299.573" gradientUnits="userSpaceOnUse">
<stop stop-color="#A4FFFF"/>
<stop offset="1" stop-color="#A4FFFF" stop-opacity="0"/>
</linearGradient>
<linearGradient id="paint12_linear_3_367" x1="95.3957" y1="362.821" x2="34.7569" y2="397.831" gradientUnits="userSpaceOnUse">
<stop stop-color="#A4FFFF"/>
<stop offset="1" stop-color="#A4FFFF" stop-opacity="0"/>
</linearGradient>
<linearGradient id="paint13_linear_3_367" x1="104.208" y1="357.732" x2="73.8886" y2="375.237" gradientUnits="userSpaceOnUse">
<stop stop-color="#A4FFFF"/>
<stop offset="1" stop-color="#A4FFFF" stop-opacity="0"/>
</linearGradient>
<linearGradient id="paint14_linear_3_367" x1="213.107" y1="119.404" x2="152.468" y2="154.414" gradientUnits="userSpaceOnUse">
<stop stop-color="#A4FFFF"/>
<stop offset="1" stop-color="#A4FFFF" stop-opacity="0"/>
</linearGradient>
<linearGradient id="paint15_linear_3_367" x1="221.92" y1="114.316" x2="191.601" y2="131.821" gradientUnits="userSpaceOnUse">
<stop stop-color="#A4FFFF"/>
<stop offset="1" stop-color="#A4FFFF" stop-opacity="0"/>
</linearGradient>
<linearGradient id="paint16_linear_3_367" x1="87.2636" y1="523.121" x2="26.6246" y2="558.131" gradientUnits="userSpaceOnUse">
<stop stop-color="#A4FFFF"/>
<stop offset="1" stop-color="#A4FFFF" stop-opacity="0"/>
</linearGradient>
<linearGradient id="paint17_linear_3_367" x1="96.077" y1="518.034" x2="65.7576" y2="535.539" gradientUnits="userSpaceOnUse">
<stop stop-color="#A4FFFF"/>
<stop offset="1" stop-color="#A4FFFF" stop-opacity="0"/>
</linearGradient>
<linearGradient id="paint18_linear_3_367" x1="124.844" y1="437.989" x2="64.1869" y2="473.01" gradientUnits="userSpaceOnUse">
<stop stop-color="#A4FFFF"/>
<stop offset="1" stop-color="#A4FFFF" stop-opacity="0"/>
</linearGradient>
<linearGradient id="paint19_linear_3_367" x1="133.664" y1="432.897" x2="103.345" y2="450.402" gradientUnits="userSpaceOnUse">
<stop stop-color="#A4FFFF"/>
<stop offset="1" stop-color="#A4FFFF" stop-opacity="0"/>
</linearGradient>
<linearGradient id="paint20_linear_3_367" x1="6.36038" y1="356" x2="-54.2786" y2="391.01" gradientUnits="userSpaceOnUse">
<stop stop-color="#A4FFFF"/>
<stop offset="1" stop-color="#A4FFFF" stop-opacity="0"/>
</linearGradient>
<linearGradient id="paint21_linear_3_367" x1="15.1712" y1="350.911" x2="-15.145" y2="368.414" gradientUnits="userSpaceOnUse">
<stop stop-color="#A4FFFF"/>
<stop offset="1" stop-color="#A4FFFF" stop-opacity="0"/>
</linearGradient>
<linearGradient id="paint22_linear_3_367" x1="316.327" y1="241.774" x2="255.688" y2="276.784" gradientUnits="userSpaceOnUse">
<stop stop-color="#A4FFFF"/>
<stop offset="1" stop-color="#A4FFFF" stop-opacity="0"/>
</linearGradient>
<linearGradient id="paint23_linear_3_367" x1="316.328" y1="241.775" x2="255.69" y2="276.785" gradientUnits="userSpaceOnUse">
<stop stop-color="#A4FFFF"/>
<stop offset="1" stop-color="#A4FFFF" stop-opacity="0"/>
</linearGradient>
<linearGradient id="paint24_linear_3_367" x1="245.162" y1="440.585" x2="184.523" y2="475.595" gradientUnits="userSpaceOnUse">
<stop stop-color="#A4FFFF"/>
<stop offset="1" stop-color="#A4FFFF" stop-opacity="0"/>
</linearGradient>
<linearGradient id="paint25_linear_3_367" x1="245.163" y1="440.586" x2="184.526" y2="475.594" gradientUnits="userSpaceOnUse">
<stop stop-color="#A4FFFF"/>
<stop offset="1" stop-color="#A4FFFF" stop-opacity="0"/>
</linearGradient>
<linearGradient id="paint26_linear_3_367" x1="217.466" y1="164.987" x2="156.809" y2="200.008" gradientUnits="userSpaceOnUse">
<stop stop-color="#A4FFFF"/>
<stop offset="1" stop-color="#A4FFFF" stop-opacity="0"/>
</linearGradient>
<linearGradient id="paint27_linear_3_367" x1="217.471" y1="164.983" x2="156.833" y2="199.992" gradientUnits="userSpaceOnUse">
<stop stop-color="#A4FFFF"/>
<stop offset="1" stop-color="#A4FFFF" stop-opacity="0"/>
</linearGradient>
<linearGradient id="paint28_linear_3_367" x1="259.028" y1="527.643" x2="198.389" y2="562.653" gradientUnits="userSpaceOnUse">
<stop stop-color="#A4FFFF"/>
<stop offset="1" stop-color="#A4FFFF" stop-opacity="0"/>
</linearGradient>
<linearGradient id="paint29_linear_3_367" x1="259.028" y1="527.642" x2="198.39" y2="562.651" gradientUnits="userSpaceOnUse">
<stop stop-color="#A4FFFF"/>
<stop offset="1" stop-color="#A4FFFF" stop-opacity="0"/>
</linearGradient>
<linearGradient id="paint30_linear_3_367" x1="494.126" y1="229.445" x2="386.134" y2="291.795" gradientUnits="userSpaceOnUse">
<stop stop-color="#A4FFFF"/>
<stop offset="1" stop-color="#A4FFFF" stop-opacity="0"/>
</linearGradient>
<linearGradient id="paint31_linear_3_367" x1="467.103" y1="245.045" x2="268.447" y2="359.739" gradientUnits="userSpaceOnUse">
<stop stop-color="#A4FFFF"/>
<stop offset="1" stop-color="#A4FFFF" stop-opacity="0"/>
</linearGradient>
<linearGradient id="paint32_linear_3_367" x1="525.662" y1="316.677" x2="417.669" y2="379.027" gradientUnits="userSpaceOnUse">
<stop stop-color="#A4FFFF"/>
<stop offset="1" stop-color="#A4FFFF" stop-opacity="0"/>
</linearGradient>
<linearGradient id="paint33_linear_3_367" x1="466.963" y1="350.566" x2="162.034" y2="526.617" gradientUnits="userSpaceOnUse">
<stop stop-color="#A4FFFF"/>
<stop offset="1" stop-color="#A4FFFF" stop-opacity="0"/>
</linearGradient>
<linearGradient id="paint34_linear_3_367" x1="256.475" y1="169.414" x2="148.483" y2="231.764" gradientUnits="userSpaceOnUse">
<stop stop-color="#A4FFFF"/>
<stop offset="1" stop-color="#A4FFFF" stop-opacity="0"/>
</linearGradient>
<linearGradient id="paint35_linear_3_367" x1="229.452" y1="185.014" x2="30.7964" y2="299.708" gradientUnits="userSpaceOnUse">
<stop stop-color="#A4FFFF"/>
<stop offset="1" stop-color="#A4FFFF" stop-opacity="0"/>
</linearGradient>
<linearGradient id="paint36_linear_3_367" x1="388.66" y1="218.386" x2="280.668" y2="280.736" gradientUnits="userSpaceOnUse">
<stop stop-color="#A4FFFF"/>
<stop offset="1" stop-color="#A4FFFF" stop-opacity="0"/>
</linearGradient>
<linearGradient id="paint37_linear_3_367" x1="361.635" y1="233.988" x2="162.981" y2="348.681" gradientUnits="userSpaceOnUse">
<stop stop-color="#A4FFFF"/>
<stop offset="1" stop-color="#A4FFFF" stop-opacity="0"/>
</linearGradient>
<linearGradient id="paint38_linear_3_367" x1="449.36" y1="373.009" x2="341.368" y2="435.359" gradientUnits="userSpaceOnUse">
<stop stop-color="#A4FFFF"/>
<stop offset="1" stop-color="#A4FFFF" stop-opacity="0"/>
</linearGradient>
<linearGradient id="paint39_linear_3_367" x1="422.338" y1="388.61" x2="223.683" y2="503.304" gradientUnits="userSpaceOnUse">
<stop stop-color="#A4FFFF"/>
<stop offset="1" stop-color="#A4FFFF" stop-opacity="0"/>
</linearGradient>
<linearGradient id="paint40_linear_3_367" x1="139.77" y1="263.604" x2="31.7441" y2="325.973" gradientUnits="userSpaceOnUse">
<stop stop-color="#A4FFFF"/>
<stop offset="1" stop-color="#A4FFFF" stop-opacity="0"/>
</linearGradient>
<linearGradient id="paint41_linear_3_367" x1="139.211" y1="263.927" x2="29.2989" y2="327.384" gradientUnits="userSpaceOnUse">
<stop stop-color="#A4FFFF"/>
<stop offset="1" stop-color="#A4FFFF" stop-opacity="0"/>
</linearGradient>
<linearGradient id="paint42_linear_3_367" x1="307.747" y1="373.631" x2="199.787" y2="435.962" gradientUnits="userSpaceOnUse">
<stop stop-color="#A4FFFF"/>
<stop offset="1" stop-color="#A4FFFF" stop-opacity="0"/>
</linearGradient>
<linearGradient id="paint43_linear_3_367" x1="307.167" y1="373.966" x2="197.256" y2="437.423" gradientUnits="userSpaceOnUse">
<stop stop-color="#A4FFFF"/>
<stop offset="1" stop-color="#A4FFFF" stop-opacity="0"/>
</linearGradient>
</defs>
</svg>
