<svg width="24" height="25" viewBox="0 0 24 25" fill="none" xmlns="http://www.w3.org/2000/svg">
<path fill-rule="evenodd" clip-rule="evenodd" d="M15 19.5805C15 20.3226 15.9624 20.614 16.374 19.9966L22.2227 11.2236C22.5549 10.7252 22.1976 10.0576 21.5986 10.0576H17V4.5347C17 3.79264 16.0376 3.50125 15.626 4.11867L9.77735 12.8916C9.44507 13.39 9.80237 14.0576 10.4014 14.0576H15V19.5805Z" fill="#99EFD0"/>
<path opacity="0.3" fill-rule="evenodd" clip-rule="evenodd" d="M3 6.55762C3 5.72919 3.67157 5.05762 4.5 5.05762H9.5C10.3284 5.05762 11 5.72919 11 6.55762C11 7.38604 10.3284 8.05762 9.5 8.05762H4.5C3.67157 8.05762 3 7.38604 3 6.55762ZM3 18.5576C3 17.7292 3.67157 17.0576 4.5 17.0576H9.5C10.3284 17.0576 11 17.7292 11 18.5576C11 19.386 10.3284 20.0576 9.5 20.0576H4.5C3.67157 20.0576 3 19.386 3 18.5576ZM2.5 11.0576C1.67157 11.0576 1 11.7292 1 12.5576C1 13.386 1.67157 14.0576 2.5 14.0576H6.5C7.32843 14.0576 8 13.386 8 12.5576C8 11.7292 7.32843 11.0576 6.5 11.0576H2.5Z" fill="#99EFD0"/>
</svg>
