<svg width="24" height="25" viewBox="0 0 24 25" fill="none" xmlns="http://www.w3.org/2000/svg">
<path opacity="0.3" fill-rule="evenodd" clip-rule="evenodd" d="M4.22183 14.179C3.44078 14.9601 3.44078 16.2264 4.22183 17.0075L7.05026 19.8359C7.83131 20.617 9.09764 20.617 9.87868 19.8359L12.7071 17.0075C13.4882 16.2264 13.4882 14.9601 12.7071 14.179L12 13.4719L9.87868 15.5933C9.48816 15.9838 8.855 15.9838 8.46447 15.5933C8.07395 15.2027 8.07395 14.5696 8.46447 14.179L10.5858 12.0577L9.87868 11.3506C9.09764 10.5696 7.83131 10.5696 7.05026 11.3506L4.22183 14.179Z" fill="#99EFD0"/>
<path fill-rule="evenodd" clip-rule="evenodd" d="M11.2929 7.10776C10.5119 7.88881 10.5119 9.15514 11.2929 9.93619L12 10.6433L14.1213 8.52197C14.5119 8.13145 15.145 8.13145 15.5355 8.52197C15.9261 8.9125 15.9261 9.54566 15.5355 9.93619L13.4142 12.0575L14.1213 12.7646C14.9024 13.5457 16.1687 13.5457 16.9498 12.7646L19.7782 9.93619C20.5592 9.15514 20.5592 7.88881 19.7782 7.10776L16.9498 4.27933C16.1687 3.49828 14.9024 3.49828 14.1213 4.27933L11.2929 7.10776Z" fill="#99EFD0"/>
</svg>
