<svg width="24" height="25" viewBox="0 0 24 25" fill="none" xmlns="http://www.w3.org/2000/svg">
<path opacity="0.3" fill-rule="evenodd" clip-rule="evenodd" d="M14 11.946C14.8262 12.6855 15.8584 13.1994 17 13.3909V20.9738C17 21.8023 16.3284 22.4738 15.5 22.4738C14.6716 22.4738 14 21.8023 14 20.9738V11.946Z" fill="#99EFD0"/>
<path opacity="0.3" fill-rule="evenodd" clip-rule="evenodd" d="M7 13.3909C8.14157 13.1994 9.17384 12.6855 10 11.946V20.9738C10 21.8023 9.32843 22.4738 8.5 22.4738C7.67157 22.4738 7 21.8023 7 20.9738V13.3909Z" fill="#99EFD0"/>
<path fill-rule="evenodd" clip-rule="evenodd" d="M18 12.4739C20.7614 12.4739 23 10.2353 23 7.47388C23 4.71245 20.7614 2.47388 18 2.47388C15.2386 2.47388 13 4.71245 13 7.47388C13 10.2353 15.2386 12.4739 18 12.4739ZM14 7.72388C14 7.30966 14.3358 6.97388 14.75 6.97388H15.25C15.6642 6.97388 16 7.30966 16 7.72388C16 8.13809 15.6642 8.47388 15.25 8.47388H14.75C14.3358 8.47388 14 8.13809 14 7.72388ZM21 5.47388C20.4477 5.47388 20 5.92159 20 6.47388V8.47388C20 9.02616 20.4477 9.47388 21 9.47388C21.5523 9.47388 22 9.02616 22 8.47388V6.47388C22 5.92159 21.5523 5.47388 21 5.47388Z" fill="#99EFD0"/>
<path fill-rule="evenodd" clip-rule="evenodd" d="M6 12.4739C8.76142 12.4739 11 10.2353 11 7.47388C11 4.71245 8.76142 2.47388 6 2.47388C3.23858 2.47388 1 4.71245 1 7.47388C1 10.2353 3.23858 12.4739 6 12.4739ZM8 7.72388C8 7.30966 8.33579 6.97388 8.75 6.97388H9.25C9.66421 6.97388 10 7.30966 10 7.72388C10 8.13809 9.66421 8.47388 9.25 8.47388H8.75C8.33579 8.47388 8 8.13809 8 7.72388ZM3 5.47388C2.44772 5.47388 2 5.92159 2 6.47388V8.47388C2 9.02616 2.44772 9.47388 3 9.47388C3.55228 9.47388 4 9.02616 4 8.47388V6.47388C4 5.92159 3.55228 5.47388 3 5.47388Z" fill="#99EFD0"/>
</svg>
