<svg width="24" height="25" viewBox="0 0 24 25" fill="none" xmlns="http://www.w3.org/2000/svg">
<path opacity="0.3" fill-rule="evenodd" clip-rule="evenodd" d="M12 17.0576C16.4183 17.0576 20 13.4759 20 9.05762C20 4.63934 16.4183 1.05762 12 1.05762C7.58172 1.05762 4 4.63934 4 9.05762C4 13.4759 7.58172 17.0576 12 17.0576Z" fill="#99EFD0"/>
<path opacity="0.3" fill-rule="evenodd" clip-rule="evenodd" d="M6.53815 9.05762L10.568 19.4201L11.9759 18.8725L13.3745 19.425L17.4703 9.05762H6.53815ZM9.46184 11.0576H14.5297L11.9758 17.5222L9.46184 11.0576Z" fill="#99EFD0"/>
<path opacity="0.3" d="M10 22.0576H14C14 23.1622 13.1046 24.0576 12 24.0576C10.8954 24.0576 10 23.1622 10 22.0576Z" fill="#99EFD0"/>
<path fill-rule="evenodd" clip-rule="evenodd" d="M8 17.0576C8 16.5053 8.44772 16.0576 9 16.0576H15C15.5523 16.0576 16 16.5053 16 17.0576C16 17.6099 15.5523 18.0576 15 18.0576C15.5523 18.0576 16 18.5053 16 19.0576C16 19.6099 15.5523 20.0576 15 20.0576C15.5523 20.0576 16 20.5053 16 21.0576C16 21.6099 15.5523 22.0576 15 22.0576H9C8.44772 22.0576 8 21.6099 8 21.0576C8 20.5053 8.44772 20.0576 9 20.0576C8.44772 20.0576 8 19.6099 8 19.0576C8 18.5053 8.44772 18.0576 9 18.0576C8.44772 18.0576 8 17.6099 8 17.0576Z" fill="#99EFD0"/>
</svg>
